<svg width="64px" height="64px" viewBox="0 0 64 64" version="1.1" xmlns="http://www.w3.org/2000/svg">
        <path fill="currentColor" d="M32,44 C38.4337349,44 44,39.4457831 44,31.9277108 C44,24.4457831 38.4337349,20 32,20 C25.5662651,20 20,24.4096386 20,31.9277108 C20,39.4457831 25.5662651,44 32,44 Z M32.1395349,41.3488372 C26.8873547,41.3488372 22.9302326,37.6511628 22.9302326,32.0697674 C22.9302326,26.4883721 26.8873547,22.9302326 32.1395349,22.9302326 C37.3917151,22.9302326 41.3488372,26.4883721 41.3488372,32.0697674 C41.3488372,37.6511628 37.3917151,41.3488372 32.1395349,41.3488372 Z M32.3219389,38.5581395 C33.9900532,38.5581395 35.4539087,37.8926655 36.7475483,36.8944544 L34.9092183,34.2991055 C34.0921827,34.8980322 33.479406,35.2973166 32.4581115,35.2973166 C30.755954,35.2973166 29.7006164,34.0329159 29.7006164,32.0364937 C29.7006164,30.3062612 30.6538246,28.8422182 32.6623704,28.8422182 C33.479406,28.8422182 34.0921827,29.2415027 34.7390025,29.9069767 L36.8837209,27.5778175 C35.7943402,26.513059 34.4326142,25.5813953 32.2538526,25.5813953 C28.7814514,25.5813953 25.5813953,28.1101968 25.5813953,32.0364937 C25.5813953,36.0293381 28.3729336,38.5581395 32.3219389,38.5581395 Z"/>
        <path fill="currentColor" d="M50.8571429,15.3333333 L50.8571429,48.6666667 L13.1428571,48.6666667 L13.1428571,15.3333333 L50.8571429,15.3333333 Z M11.5714286,12 C10.7035525,12 10,12.7461921 10,13.6666667 L10,50.3333333 C10,51.2538079 10.7035525,52 11.5714286,52 L52.4285714,52 C53.2964475,52 54,51.2538079 54,50.3333333 L54,13.6666667 C54,12.7461921 53.2964475,12 52.4285714,12 L11.5714286,12 Z"/>
</svg>
