<svg width="64px" height="64px" viewBox="0 0 64 64" version="1.1" xmlns="http://www.w3.org/2000/svg">
    <polygon fill="#447ACC" points="64 0 0 0 0 64 64 64"/>
    <polyline fill="#5E8FD9" points="59 5 59 59 5 59 5 5 59 5"/>
    <polygon fill="#98B8E8" points="44.75 38.5 25.75 59 59 59 59 52.3255814"/>
    <polygon fill="#80A8E3" points="5 43.7384615 5 59 47.75 59 19.25 28"/>
    <path fill="#FFFFFF" d="M32,53.5 C43.5271084,53.5 53.5,45.3403614 53.5,31.8704819 C53.5,18.4653614 43.5271084,10.5 32,10.5 C20.4728916,10.5 10.5,18.4006024 10.5,31.8704819 C10.5,45.3403614 20.4728916,53.5 32,53.5 Z M32.25,48.75 C22.8398438,48.75 15.75,42.125 15.75,32.125 C15.75,22.125 22.8398438,15.75 32.25,15.75 C41.6601562,15.75 48.75,22.125 48.75,32.125 C48.75,42.125 41.6601562,48.75 32.25,48.75 Z M32.5768072,43.75 C35.565512,43.75 38.188253,42.5576923 40.5060241,40.7692308 L37.2123494,36.1192308 C35.748494,37.1923077 34.6506024,37.9076923 32.8207831,37.9076923 C29.7710843,37.9076923 27.8802711,35.6423077 27.8802711,32.0653846 C27.8802711,28.9653846 29.5881024,26.3423077 33.186747,26.3423077 C34.6506024,26.3423077 35.748494,27.0576923 36.9073795,28.25 L40.75,24.0769231 C38.7981928,22.1692308 36.3584337,20.5 32.4548193,20.5 C26.2334337,20.5 20.5,25.0307692 20.5,32.0653846 C20.5,39.2192308 25.501506,43.75 32.5768072,43.75 Z"/>
</svg>
