<svg width="256px" height="256px" viewBox="0 0 256 256" version="1.1" xmlns="http://www.w3.org/2000/svg">
    <polygon fill="#447ACC" points="256 0 0 0 0 256 256 256"/>
    <polyline fill="#AACCFF" points="236 20 236 236 20 236 20 20 236 20"/>
    <polygon fill="#FFFFFF" points="179 154 103 236 236 236 236 209.302326"/>
    <polygon fill="#E9F2FF" points="20 174.953846 20 236 191 236 77 112"/>
    <path fill="#202020" d="M128,214 C174.108434,214 214,181.361446 214,127.481928 C214,73.8614458 174.108434,42 128,42 C81.8915663,42 42,73.6024096 42,127.481928 C42,181.361446 81.8915663,214 128,214 Z M129,195 C91.359375,195 63,168.5 63,128.5 C63,88.5 91.359375,63 129,63 C166.640625,63 195,88.5 195,128.5 C195,168.5 166.640625,195 129,195 Z M130.307229,175 C142.262048,175 152.753012,170.230769 162.024096,163.076923 L148.849398,144.476923 C142.993976,148.769231 138.60241,151.630769 131.283133,151.630769 C119.084337,151.630769 111.521084,142.569231 111.521084,128.261538 C111.521084,115.861538 118.35241,105.369231 132.746988,105.369231 C138.60241,105.369231 142.993976,108.230769 147.629518,113 L163,96.3076923 C155.192771,88.6769231 145.433735,82 129.819277,82 C104.933735,82 82,100.123077 82,128.261538 C82,156.876923 102.006024,175 130.307229,175 Z"/>
</svg>
