<svg width="256px" height="256px" viewBox="0 0 256 256" version="1.1" xmlns="http://www.w3.org/2000/svg">
    <path fill="#CE9B32" d="M248.836959,202.896547 L188.772866,247.137686 C180.903625,252.957368 171.167106,256.158415 160.985998,256.158415 L6.71330728,256.158415 C2.82359037,256.158415 0,252.936917 0,249.049423 L0,206.373239 C0,202.483967 3.22327667,199.250909 6.71330728,199.250909 L31.3302493,199.261491 L52.003679,182.482668 C60.9399357,175.324771 72.9527544,170.812184 84.9566813,170.812184 L155.690932,170.812184 C164.360435,170.812184 171.193781,178.53471 169.748864,187.426508 C168.581816,194.428799 162.026338,199.261491 154.9129,199.261491 L120.528318,199.261491 C116.638601,199.261491 113.815011,202.484323 113.815011,205.974798 C113.815011,209.465273 117.038287,212.688105 120.528318,212.688105 L174.145858,212.688105 L227.363268,173.488615 C235.276968,167.624474 246.396161,169.335256 252.22918,177.252958 C258.440101,185.957672 256.750659,197.072419 248.836959,202.896547 Z"/>
    <path fill="#202020" d="M128,138 C164.993976,138 197,111.813253 197,68.5843373 C197,25.563253 164.993976,0 128,0 C91.0060241,0 59,25.3554217 59,68.5843373 C59,111.813253 91.0060241,138 128,138 Z M129,123 C98.7734375,123 76,101.719697 76,69.5984848 C76,37.4772727 98.7734375,17 129,17 C159.226562,17 182,37.4772727 182,69.5984848 C182,101.719697 159.226562,123 129,123 Z M129.76506,107 C139.358434,107 147.777108,103.153846 155.216867,97.3846154 L144.644578,82.3846154 C139.945783,85.8461538 136.421687,88.1538462 130.548193,88.1538462 C120.759036,88.1538462 114.689759,80.8461538 114.689759,69.3076923 C114.689759,59.3076923 120.171687,50.8461538 131.722892,50.8461538 C136.421687,50.8461538 139.945783,53.1538462 143.665663,57 L156,43.5384615 C149.73494,37.3846154 141.903614,32 129.373494,32 C109.403614,32 91,46.6153846 91,69.3076923 C91,92.3846154 107.054217,107 129.76506,107 Z"/>
</svg>
